<svg xmlns="http://www.w3.org/2000/svg" viewBox="0 0 1200 300" width="1200" height="300" font-family="Segoe UI, Helvetica Neue, Arial, sans-serif">
<defs><linearGradient id="g" x1="0" x2="1" y1="0" y2="1"><stop offset="0" stop-color="#3A2A1F"/><stop offset="1" stop-color="#2A1E16"/></linearGradient></defs>
<rect width="1200" height="300" fill="url(#g)"/>
<circle cx="820" cy="22" r="9" fill="#ffffff" opacity="0.025"/><circle cx="854" cy="22" r="9" fill="#ffffff" opacity="0.04"/><circle cx="888" cy="22" r="9" fill="#ffffff" opacity="0.055"/><circle cx="922" cy="22" r="9" fill="#ffffff" opacity="0.025"/><circle cx="956" cy="22" r="9" fill="#ffffff" opacity="0.04"/><circle cx="990" cy="22" r="9" fill="#ffffff" opacity="0.055"/><circle cx="1024" cy="22" r="9" fill="#ffffff" opacity="0.025"/><circle cx="1058" cy="22" r="9" fill="#ffffff" opacity="0.04"/><circle cx="1092" cy="22" r="9" fill="#ffffff" opacity="0.055"/><circle cx="1126" cy="22" r="9" fill="#ffffff" opacity="0.025"/><circle cx="1160" cy="22" r="9" fill="#ffffff" opacity="0.04"/><circle cx="1194" cy="22" r="9" fill="#ffffff" opacity="0.055"/><circle cx="837" cy="52" r="9" fill="#ffffff" opacity="0.04"/><circle cx="871" cy="52" r="9" fill="#ffffff" opacity="0.055"/><circle cx="905" cy="52" r="9" fill="#ffffff" opacity="0.025"/><circle cx="939" cy="52" r="9" fill="#ffffff" opacity="0.04"/><circle cx="973" cy="52" r="9" fill="#ffffff" opacity="0.055"/><circle cx="1007" cy="52" r="9" fill="#ffffff" opacity="0.025"/><circle cx="1041" cy="52" r="9" fill="#ffffff" opacity="0.04"/><circle cx="1075" cy="52" r="9" fill="#ffffff" opacity="0.055"/><circle cx="1109" cy="52" r="9" fill="#ffffff" opacity="0.025"/><circle cx="1143" cy="52" r="9" fill="#ffffff" opacity="0.04"/><circle cx="1177" cy="52" r="9" fill="#ffffff" opacity="0.055"/><circle cx="1211" cy="52" r="9" fill="#ffffff" opacity="0.025"/><circle cx="820" cy="82" r="9" fill="#ffffff" opacity="0.055"/><circle cx="854" cy="82" r="9" fill="#ffffff" opacity="0.025"/><circle cx="888" cy="82" r="9" fill="#ffffff" opacity="0.04"/><circle cx="922" cy="82" r="9" fill="#ffffff" opacity="0.055"/><circle cx="956" cy="82" r="9" fill="#ffffff" opacity="0.025"/><circle cx="990" cy="82" r="9" fill="#ffffff" opacity="0.04"/><circle cx="1024" cy="82" r="9" fill="#ffffff" opacity="0.055"/><circle cx="1058" cy="82" r="9" fill="#ffffff" opacity="0.025"/><circle cx="1092" cy="82" r="9" fill="#ffffff" opacity="0.04"/><circle cx="1126" cy="82" r="9" fill="#ffffff" opacity="0.055"/><circle cx="1160" cy="82" r="9" fill="#ffffff" opacity="0.025"/><circle cx="1194" cy="82" r="9" fill="#ffffff" opacity="0.04"/><circle cx="837" cy="112" r="9" fill="#ffffff" opacity="0.025"/><circle cx="871" cy="112" r="9" fill="#ffffff" opacity="0.04"/><circle cx="905" cy="112" r="9" fill="#ffffff" opacity="0.055"/><circle cx="939" cy="112" r="9" fill="#ffffff" opacity="0.025"/><circle cx="973" cy="112" r="9" fill="#ffffff" opacity="0.04"/><circle cx="1007" cy="112" r="9" fill="#ffffff" opacity="0.055"/><circle cx="1041" cy="112" r="9" fill="#ffffff" opacity="0.025"/><circle cx="1075" cy="112" r="9" fill="#ffffff" opacity="0.04"/><circle cx="1109" cy="112" r="9" fill="#ffffff" opacity="0.055"/><circle cx="1143" cy="112" r="9" fill="#ffffff" opacity="0.025"/><circle cx="1177" cy="112" r="9" fill="#ffffff" opacity="0.04"/><circle cx="1211" cy="112" r="9" fill="#ffffff" opacity="0.055"/><circle cx="820" cy="142" r="9" fill="#ffffff" opacity="0.04"/><circle cx="854" cy="142" r="9" fill="#ffffff" opacity="0.055"/><circle cx="888" cy="142" r="9" fill="#ffffff" opacity="0.025"/><circle cx="922" cy="142" r="9" fill="#ffffff" opacity="0.04"/><circle cx="956" cy="142" r="9" fill="#ffffff" opacity="0.055"/><circle cx="990" cy="142" r="9" fill="#ffffff" opacity="0.025"/><circle cx="1024" cy="142" r="9" fill="#ffffff" opacity="0.04"/><circle cx="1058" cy="142" r="9" fill="#ffffff" opacity="0.055"/><circle cx="1092" cy="142" r="9" fill="#ffffff" opacity="0.025"/><circle cx="1126" cy="142" r="9" fill="#ffffff" opacity="0.04"/><circle cx="1160" cy="142" r="9" fill="#ffffff" opacity="0.055"/><circle cx="1194" cy="142" r="9" fill="#ffffff" opacity="0.025"/><circle cx="837" cy="172" r="9" fill="#ffffff" opacity="0.055"/><circle cx="871" cy="172" r="9" fill="#ffffff" opacity="0.025"/><circle cx="905" cy="172" r="9" fill="#ffffff" opacity="0.04"/><circle cx="939" cy="172" r="9" fill="#ffffff" opacity="0.055"/><circle cx="973" cy="172" r="9" fill="#ffffff" opacity="0.025"/><circle cx="1007" cy="172" r="9" fill="#ffffff" opacity="0.04"/><circle cx="1041" cy="172" r="9" fill="#ffffff" opacity="0.055"/><circle cx="1075" cy="172" r="9" fill="#ffffff" opacity="0.025"/><circle cx="1109" cy="172" r="9" fill="#ffffff" opacity="0.04"/><circle cx="1143" cy="172" r="9" fill="#ffffff" opacity="0.055"/><circle cx="1177" cy="172" r="9" fill="#ffffff" opacity="0.025"/><circle cx="1211" cy="172" r="9" fill="#ffffff" opacity="0.04"/><circle cx="820" cy="202" r="9" fill="#ffffff" opacity="0.025"/><circle cx="854" cy="202" r="9" fill="#ffffff" opacity="0.04"/><circle cx="888" cy="202" r="9" fill="#ffffff" opacity="0.055"/><circle cx="922" cy="202" r="9" fill="#ffffff" opacity="0.025"/><circle cx="956" cy="202" r="9" fill="#ffffff" opacity="0.04"/><circle cx="990" cy="202" r="9" fill="#ffffff" opacity="0.055"/><circle cx="1024" cy="202" r="9" fill="#ffffff" opacity="0.025"/><circle cx="1058" cy="202" r="9" fill="#ffffff" opacity="0.04"/><circle cx="1092" cy="202" r="9" fill="#ffffff" opacity="0.055"/><circle cx="1126" cy="202" r="9" fill="#ffffff" opacity="0.025"/><circle cx="1160" cy="202" r="9" fill="#ffffff" opacity="0.04"/><circle cx="1194" cy="202" r="9" fill="#ffffff" opacity="0.055"/><circle cx="837" cy="232" r="9" fill="#ffffff" opacity="0.04"/><circle cx="871" cy="232" r="9" fill="#ffffff" opacity="0.055"/><circle cx="905" cy="232" r="9" fill="#ffffff" opacity="0.025"/><circle cx="939" cy="232" r="9" fill="#ffffff" opacity="0.04"/><circle cx="973" cy="232" r="9" fill="#ffffff" opacity="0.055"/><circle cx="1007" cy="232" r="9" fill="#ffffff" opacity="0.025"/><circle cx="1041" cy="232" r="9" fill="#ffffff" opacity="0.04"/><circle cx="1075" cy="232" r="9" fill="#ffffff" opacity="0.055"/><circle cx="1109" cy="232" r="9" fill="#ffffff" opacity="0.025"/><circle cx="1143" cy="232" r="9" fill="#ffffff" opacity="0.04"/><circle cx="1177" cy="232" r="9" fill="#ffffff" opacity="0.055"/><circle cx="1211" cy="232" r="9" fill="#ffffff" opacity="0.025"/><circle cx="820" cy="262" r="9" fill="#ffffff" opacity="0.055"/><circle cx="854" cy="262" r="9" fill="#ffffff" opacity="0.025"/><circle cx="888" cy="262" r="9" fill="#ffffff" opacity="0.04"/><circle cx="922" cy="262" r="9" fill="#ffffff" opacity="0.055"/><circle cx="956" cy="262" r="9" fill="#ffffff" opacity="0.025"/><circle cx="990" cy="262" r="9" fill="#ffffff" opacity="0.04"/><circle cx="1024" cy="262" r="9" fill="#ffffff" opacity="0.055"/><circle cx="1058" cy="262" r="9" fill="#ffffff" opacity="0.025"/><circle cx="1092" cy="262" r="9" fill="#ffffff" opacity="0.04"/><circle cx="1126" cy="262" r="9" fill="#ffffff" opacity="0.055"/><circle cx="1160" cy="262" r="9" fill="#ffffff" opacity="0.025"/><circle cx="1194" cy="262" r="9" fill="#ffffff" opacity="0.04"/><circle cx="837" cy="292" r="9" fill="#ffffff" opacity="0.025"/><circle cx="871" cy="292" r="9" fill="#ffffff" opacity="0.04"/><circle cx="905" cy="292" r="9" fill="#ffffff" opacity="0.055"/><circle cx="939" cy="292" r="9" fill="#ffffff" opacity="0.025"/><circle cx="973" cy="292" r="9" fill="#ffffff" opacity="0.04"/><circle cx="1007" cy="292" r="9" fill="#ffffff" opacity="0.055"/><circle cx="1041" cy="292" r="9" fill="#ffffff" opacity="0.025"/><circle cx="1075" cy="292" r="9" fill="#ffffff" opacity="0.04"/><circle cx="1109" cy="292" r="9" fill="#ffffff" opacity="0.055"/><circle cx="1143" cy="292" r="9" fill="#ffffff" opacity="0.025"/><circle cx="1177" cy="292" r="9" fill="#ffffff" opacity="0.04"/><circle cx="1211" cy="292" r="9" fill="#ffffff" opacity="0.055"/>
<rect x="0" y="290" width="720" height="10" fill="#4A3426"/><rect x="720" y="290" width="300" height="10" fill="#86B04A"/><rect x="1020" y="290" width="180" height="10" fill="#E39B12"/>
<g transform="translate(64,62) scale(0.26666666666666666)"><rect width="240" height="240" rx="54" fill="#4A3426"/><clipPath id="ic"><path d="M70 134 Q70 130 74 130 H166 Q170 130 170 134 L158 196 Q157 202 151 202 H89 Q83 202 82 196 Z"/></clipPath><path d="M70 134 Q70 130 74 130 H166 Q170 130 170 134 L158 196 Q157 202 151 202 H89 Q83 202 82 196 Z" fill="#2E2119"/><g clip-path="url(#ic)" stroke="#F3F5EA" stroke-width="3.6" stroke-linecap="round" fill="none" opacity=".92"><path d="M120 136 C118 152 108 166 97 184"/><path d="M120 136 C123 154 134 168 145 186"/><path d="M120 136 L120 196"/><path d="M111 160 C103 163 95 167 90 175"/><path d="M130 158 C139 160 147 165 152 171"/><path d="M120 170 C114 176 108 182 105 192"/><path d="M120 168 C127 175 132 183 135 192"/></g><path d="M70 134 Q70 130 74 130 H166 Q170 130 170 134 L158 196 Q157 202 151 202 H89 Q83 202 82 196 Z" fill="none" stroke="#F3F5EA" stroke-width="5" stroke-linejoin="round"/><path d="M120 132 V70" stroke="#86B04A" stroke-width="9" stroke-linecap="round"/><path d="M119 104 C92 106 70 92 62 64 C92 58 114 74 119 104Z" fill="#4F7F2A"/><path d="M121 88 C146 90 170 74 178 44 C148 40 124 58 121 88Z" fill="#86B04A"/><circle cx="178" cy="44" r="0" fill="#E39B12"/></g>
<text x="148" y="88" font-size="16" font-weight="600" fill="#86B04A">Jesapura Mithapura · Kheda, Gujarat</text>
<text x="148" y="124" font-size="34" font-weight="800" fill="#F3F5EA">Akshar Farm And Nursery</text>
<text x="64" y="176" font-size="24" font-weight="600" fill="#F3F5EA">Website + Sales &amp; Operations Data Analysis</text>
<text x="64" y="206" font-size="16" fill="#CFC7B8">Seasonality, crop and variety performance, customers, production efficiency and a sowing plan</text>
<rect x="64" y="228" width="88.80000000000001" height="30" rx="15" fill="none" stroke="#86B04A" stroke-width="1.5"/><text x="108.4" y="248" text-anchor="middle" font-size="14" font-weight="600" fill="#E9E4D8">Website</text><rect x="162.8" y="228" width="80.4" height="30" rx="15" fill="none" stroke="#86B04A" stroke-width="1.5"/><text x="203.0" y="248" text-anchor="middle" font-size="14" font-weight="600" fill="#E9E4D8">Python</text><rect x="253.20000000000002" y="228" width="55.2" height="30" rx="15" fill="none" stroke="#86B04A" stroke-width="1.5"/><text x="280.8" y="248" text-anchor="middle" font-size="14" font-weight="600" fill="#E9E4D8">SQL</text><rect x="318.40000000000003" y="228" width="105.60000000000001" height="30" rx="15" fill="none" stroke="#86B04A" stroke-width="1.5"/><text x="371.20000000000005" y="248" text-anchor="middle" font-size="14" font-weight="600" fill="#E9E4D8">Dashboard</text><rect x="434.00000000000006" y="228" width="139.2" height="30" rx="15" fill="none" stroke="#86B04A" stroke-width="1.5"/><text x="503.6" y="248" text-anchor="middle" font-size="14" font-weight="600" fill="#E9E4D8">Real business</text>
</svg>